<?xml version="1.0" encoding="UTF-8" standalone="no"?>
<!-- Created with Inkscape (http://www.inkscape.org/) -->

<svg
   xmlns:dc="http://purl.org/dc/elements/1.1/"
   xmlns:cc="http://creativecommons.org/ns#"
   xmlns:rdf="http://www.w3.org/1999/02/22-rdf-syntax-ns#"
   xmlns:svg="http://www.w3.org/2000/svg"
   xmlns="http://www.w3.org/2000/svg"
   xmlns:sodipodi="http://sodipodi.sourceforge.net/DTD/sodipodi-0.dtd"
   xmlns:inkscape="http://www.inkscape.org/namespaces/inkscape"
   width="195mm"
   height="140mm"
   viewBox="0 0 195 140"
   version="1.1"
   id="svg8"
   sodipodi:docname="forward.svg"
   inkscape:version="0.92.1 r15371">
  <defs
     id="defs2" />
  <sodipodi:namedview
     id="base"
     pagecolor="#ffffff"
     bordercolor="#666666"
     borderopacity="1.0"
     inkscape:pageopacity="0"
     inkscape:pageshadow="2"
     inkscape:zoom="0.70000001"
     inkscape:cx="184.39981"
     inkscape:cy="296.29134"
     inkscape:document-units="mm"
     inkscape:current-layer="layer1"
     showgrid="true"
     inkscape:window-width="1366"
     inkscape:window-height="721"
     inkscape:window-x="0"
     inkscape:window-y="0"
     inkscape:window-maximized="1"
     showguides="false"
     inkscape:pagecheckerboard="true"
     inkscape:object-paths="false">
    <inkscape:grid
       type="xygrid"
       id="grid3711"
       originx="0.079415271"
       originy="0.0085388831"
       units="mm"
       spacingx="5.0000001"
       spacingy="5.0000001" />
  </sodipodi:namedview>
  <metadata
     id="metadata5">
    <rdf:RDF>
      <cc:Work
         rdf:about="">
        <dc:format>image/svg+xml</dc:format>
        <dc:type
           rdf:resource="http://purl.org/dc/dcmitype/StillImage" />
        <dc:title />
      </cc:Work>
    </rdf:RDF>
  </metadata>
  <g
     inkscape:label="Layer 1"
     inkscape:groupmode="layer"
     id="layer1"
     transform="translate(-34.316417,-133.19604)">
    <path
       style="fill:#0000ff;fill-opacity:1;stroke:none;stroke-width:0.26458332px;stroke-linecap:butt;stroke-linejoin:miter;stroke-opacity:1"
       d="m 184.39583,133.1875 c 10.00001,0 35,9.99999 45,14.99999 -10,5 -34.99999,15.00001 -45,15.00001 -11.18034,0 -11.18033,-30 0,-30 z"
       id="path4547"
       inkscape:connector-curvature="0"
       sodipodi:nodetypes="scss" />
    <path
       style="fill:#0000ff;fill-opacity:1;stroke:none;stroke-width:0.26458332px;stroke-linecap:butt;stroke-linejoin:miter;stroke-opacity:1"
       d="m 184.39583,243.1875 c 10.00001,0 35.00001,10 45.00001,15 -10,5 -35,15 -45.00001,15 -11.18034,0 -11.18033,-30 0,-30 z"
       id="path4547-7"
       inkscape:connector-curvature="0"
       sodipodi:nodetypes="scss" />
    <path
       style="fill:#00ffff;fill-opacity:1;stroke:none;stroke-width:0.17638898px;stroke-linecap:butt;stroke-linejoin:miter;stroke-opacity:1"
       d="m 184.39584,248.1875 c 6.66668,0 23.33333,6.66666 30,10 -6.66667,3.33333 -23.33332,10.00001 -30,10.00001 -7.45357,0 -7.45357,-20.00001 0,-20.00001 z"
       id="path4547-3-5"
       inkscape:connector-curvature="0"
       sodipodi:nodetypes="scss" />
    <path
       style="fill:#00ffff;fill-opacity:1;stroke:none;stroke-width:0.17638898px;stroke-linecap:butt;stroke-linejoin:miter;stroke-opacity:1"
       d="m 184.39584,138.1875 c 6.66668,0 23.33333,6.66666 30,10 -6.66667,3.33333 -23.33332,10.00001 -30,10.00001 -7.45357,0 -7.45357,-20.00001 0,-20.00001 z"
       id="path4547-3"
       inkscape:connector-curvature="0"
       sodipodi:nodetypes="scss" />
    <path
       style="fill:#ffffff;fill-opacity:1;stroke:none;stroke-width:0.08853629px;stroke-linecap:butt;stroke-linejoin:miter;stroke-opacity:1"
       d="m 184.39584,143.1875 c 3.34626,0 11.71187,3.34625 15.05813,5.01938 -3.34626,1.67312 -11.71187,5.01938 -15.05813,5.01938 -3.74124,0 -3.74124,-10.03876 0,-10.03876 z"
       id="path4547-3-3"
       inkscape:connector-curvature="0"
       sodipodi:nodetypes="scss" />
    <path
       style="fill:#ffffff;fill-opacity:1;stroke:none;stroke-width:0.08853629px;stroke-linecap:butt;stroke-linejoin:miter;stroke-opacity:1"
       d="m 184.33771,253.16812 c 3.34626,0 11.71187,3.34625 15.05813,5.01938 -3.34626,1.67312 -11.71187,5.01938 -15.05813,5.01938 -3.74124,0 -3.74124,-10.03876 0,-10.03876 z"
       id="path4547-3-3-5"
       inkscape:connector-curvature="0"
       sodipodi:nodetypes="scss" />
  </g>
</svg>
