<?xml version="1.0" encoding="UTF-8" standalone="no"?>
<!-- Created with Inkscape (http://www.inkscape.org/) -->

<svg
   xmlns:dc="http://purl.org/dc/elements/1.1/"
   xmlns:cc="http://creativecommons.org/ns#"
   xmlns:rdf="http://www.w3.org/1999/02/22-rdf-syntax-ns#"
   xmlns:svg="http://www.w3.org/2000/svg"
   xmlns="http://www.w3.org/2000/svg"
   xmlns:sodipodi="http://sodipodi.sourceforge.net/DTD/sodipodi-0.dtd"
   xmlns:inkscape="http://www.inkscape.org/namespaces/inkscape"
   width="143.24792mm"
   height="143.22633mm"
   viewBox="0 0 143.24793 143.22633"
   version="1.1"
   id="svg8"
   sodipodi:docname="default-outline.svg"
   inkscape:version="0.92.2 5c3e80d, 2017-08-06">
  <defs
     id="defs2" />
  <sodipodi:namedview
     id="base"
     pagecolor="#ffffff"
     bordercolor="#666666"
     borderopacity="1.0"
     inkscape:pageopacity="0"
     inkscape:pageshadow="2"
     inkscape:zoom="0.91816745"
     inkscape:cx="690.65084"
     inkscape:cy="545.3475"
     inkscape:document-units="mm"
     inkscape:current-layer="layer1"
     showgrid="true"
     inkscape:window-width="1920"
     inkscape:window-height="1031"
     inkscape:window-x="0"
     inkscape:window-y="23"
     inkscape:window-maximized="0"
     showguides="false"
     inkscape:pagecheckerboard="true"
     inkscape:snap-bbox="false"
     inkscape:snap-object-midpoints="true"
     inkscape:lockguides="true">
    <inkscape:grid
       type="xygrid"
       id="grid3711"
       originx="1.6683355"
       originy="1.596036"
       units="mm"
       spacingx="5.0000001"
       spacingy="5.0000001" />
  </sodipodi:namedview>
  <metadata
     id="metadata5">
    <rdf:RDF>
      <cc:Work
         rdf:about="">
        <dc:format>image/svg+xml</dc:format>
        <dc:type
           rdf:resource="http://purl.org/dc/dcmitype/StillImage" />
        <dc:title />
      </cc:Work>
    </rdf:RDF>
  </metadata>
  <g
     inkscape:label="Layer 1"
     inkscape:groupmode="layer"
     id="layer1"
     transform="translate(-32.727497,-131.55722)">
    <g
       id="g1614"
       mask="none"
       style="stroke:#ffffff;stroke-width:3.17499995;stroke-miterlimit:4;stroke-dasharray:none;stroke-opacity:1">
      <path
         sodipodi:nodetypes="sssccss"
         inkscape:connector-curvature="0"
         id="rect4693"
         d="m 34.315004,194.07496 0.01447,18.41123 c 0.0026,3.26439 2.632647,5.88889 5.897042,5.88451 l 43.492181,-0.0514 -0.02374,-30.19606 -43.492181,0.0514 c -3.264396,0.004 -5.890344,2.63592 -5.887777,5.90032 z"
         style="fill:none;fill-opacity:1;stroke:#ffffff;stroke-width:3.17499995;stroke-linejoin:round;stroke-miterlimit:4;stroke-dasharray:none;stroke-opacity:1" />
      <path
         sodipodi:nodetypes="ccccccccccccccccc"
         inkscape:connector-curvature="0"
         id="rect4644"
         d="m 137.0707,234.74372 -42.649589,0.0439 c -5.904545,0.006 -10.662536,-4.74287 -10.6686,-10.64741 l -0.04341,-41.82122 c -0.0061,-5.90455 4.742868,-10.66254 10.647413,-10.6686 l 42.649076,-0.0439 -0.01,-8.23981 10.65309,-0.0108 0.01,8.23981 15.97473,-0.0165 c 5.90454,-0.006 10.66305,4.74235 10.66912,10.64689 l 0.0429,41.82122 c 0.006,5.90455 -4.74235,10.66306 -10.6469,10.66912 l -15.97473,0.0165 0.01,8.23995 -10.6531,0.0109 z"
         style="fill:none;fill-opacity:1;stroke:#ffffff;stroke-width:3.17499995;stroke-linejoin:round;stroke-miterlimit:4;stroke-dasharray:none;stroke-opacity:1" />
      <path
         transform="matrix(0.00102699,0.99999947,0.99999947,-0.00102699,0,0)"
         style="fill:none;fill-opacity:1;stroke:#ffffff;stroke-width:3.17499995;stroke-linejoin:round;stroke-miterlimit:4;stroke-dasharray:none;stroke-opacity:1"
         d="m 141.01317,108.68683 h 14.80115 c 4.26439,0 7.69746,3.43307 7.69746,7.69746 v 50.03348 c 0,4.2644 -3.43307,7.69746 -7.69746,7.69746 h -14.80115 c -4.2644,0 -7.69747,-3.43306 -7.69747,-7.69746 v -50.03348 c 0,-4.26439 3.43307,-7.69746 7.69747,-7.69746 z"
         id="rect4693-2"
         inkscape:connector-curvature="0" />
      <path
         transform="matrix(0.00102699,0.99999947,0.99999947,-0.00102699,0,0)"
         style="fill:none;fill-opacity:1;stroke:#ffffff;stroke-width:3.17499995;stroke-linejoin:round;stroke-miterlimit:4;stroke-dasharray:none;stroke-opacity:1"
         d="m 250.81709,108.68683 h 14.80115 c 4.2644,0 7.69747,3.43307 7.69747,7.69746 v 50.03348 c 0,4.2644 -3.43307,7.69746 -7.69747,7.69746 h -14.80115 c -4.26439,0 -7.69746,-3.43306 -7.69746,-7.69746 v -50.03348 c 0,-4.26439 3.43307,-7.69746 7.69746,-7.69746 z"
         id="rect4693-5"
         inkscape:connector-curvature="0" />
    </g>
    <rect
       style="fill:none;fill-opacity:1;stroke:#ffffff;stroke-width:3.17499995;stroke-linejoin:round;stroke-miterlimit:4;stroke-dasharray:none;stroke-opacity:1"
       id="rect4767"
       width="52.156864"
       height="29.295986"
       x="-229.15862"
       y="89.956451"
       ry="6.5132413"
       transform="rotate(-89.941158)" />
  </g>
</svg>
