<?xml version="1.0" encoding="UTF-8" standalone="no"?>
<!-- Created with Inkscape (http://www.inkscape.org/) -->

<svg
   xmlns:dc="http://purl.org/dc/elements/1.1/"
   xmlns:cc="http://creativecommons.org/ns#"
   xmlns:rdf="http://www.w3.org/1999/02/22-rdf-syntax-ns#"
   xmlns:svg="http://www.w3.org/2000/svg"
   xmlns="http://www.w3.org/2000/svg"
   xmlns:sodipodi="http://sodipodi.sourceforge.net/DTD/sodipodi-0.dtd"
   xmlns:inkscape="http://www.inkscape.org/namespaces/inkscape"
   width="32"
   height="32"
   viewBox="0 0 8.4666665 8.4666669"
   version="1.1"
   id="svg8"
   inkscape:version="0.92.2 5c3e80d, 2017-08-06"
   sodipodi:docname="credits.svg">
  <defs
     id="defs2" />
  <sodipodi:namedview
     id="base"
     pagecolor="#ffffff"
     bordercolor="#666666"
     borderopacity="1.0"
     inkscape:pageopacity="0.0"
     inkscape:pageshadow="2"
     inkscape:zoom="8"
     inkscape:cx="12.467109"
     inkscape:cy="13.520707"
     inkscape:document-units="mm"
     inkscape:current-layer="layer1"
     showgrid="true"
     units="px"
     inkscape:pagecheckerboard="false"
     inkscape:snap-bbox="true"
     inkscape:bbox-paths="false"
     inkscape:bbox-nodes="true"
     inkscape:snap-nodes="true"
     inkscape:object-paths="false"
     inkscape:snap-smooth-nodes="true"
     inkscape:window-width="1440"
     inkscape:window-height="810"
     inkscape:window-x="295"
     inkscape:window-y="146"
     inkscape:window-maximized="0">
    <inkscape:grid
       type="xygrid"
       id="grid815"
       spacingx="0.26458333"
       spacingy="0.26458333"
       empspacing="8"
       empcolor="#ff3fff"
       empopacity="0.25098039"
       originy="0"
       visible="true" />
  </sodipodi:namedview>
  <metadata
     id="metadata5">
    <rdf:RDF>
      <cc:Work
         rdf:about="">
        <dc:format>image/svg+xml</dc:format>
        <dc:type
           rdf:resource="http://purl.org/dc/dcmitype/StillImage" />
        <dc:title></dc:title>
      </cc:Work>
    </rdf:RDF>
  </metadata>
  <g
     inkscape:label="Layer 1"
     inkscape:groupmode="layer"
     id="layer1"
     transform="translate(0,-288.53332)">
    <ellipse
       style="fill:#000000;fill-opacity:1;fill-rule:nonzero;stroke:#000000;stroke-width:0.25656548;stroke-linejoin:round;stroke-miterlimit:4;stroke-dasharray:none;stroke-dashoffset:0;stroke-opacity:1;paint-order:markers fill stroke"
       id="path4561"
       cx="4.2333336"
       cy="292.76666"
       rx="4.1050506"
       ry="4.1050448" />
    <ellipse
       style="fill:#ffd200;fill-opacity:1;fill-rule:nonzero;stroke:#ffaa00;stroke-width:0.24897292;stroke-linejoin:round;stroke-miterlimit:4;stroke-dasharray:none;stroke-dashoffset:0;stroke-opacity:1;paint-order:markers fill stroke"
       id="path819"
       cx="4.2333336"
       cy="292.76666"
       rx="3.8443244"
       ry="3.844321" />
    <path
       style="fill:#ffaa00;fill-opacity:1;stroke:#000000;stroke-width:0.15875;stroke-linecap:butt;stroke-linejoin:miter;stroke-miterlimit:4;stroke-dasharray:none;stroke-opacity:1"
       d="m 4.1010417,289.85624 c -0.2645833,0 -0.2645833,0.26459 -0.2645833,0.26459 v 0.79374 l -1.1906253,2e-5 c 0,0 -0.5291667,0 -0.5291667,0.52917 v 2.64583 c 0,0 -2e-7,0.52916 0.5291667,0.52917 l 1.1906253,-2e-5 v 0.79376 c 0,0.26459 0.2645833,0.26458 0.2645833,0.26458 H 4.365625 c 0.2645833,0 0.2645833,-0.26458 0.2645833,-0.26458 v -0.79376 l 1.4552081,2e-5 c 0,0 0.2645833,0 0.2645833,-0.26458 v -0.26459 c 0,0 0,-0.26458 -0.2645833,-0.26458 l -1.4552081,-2e-5 v -2.11667 l 1.4552081,2e-5 c 0,0 0.2645833,0 0.2645833,-0.26458 v -0.26458 c 0,0 0,-0.26459 -0.2645833,-0.26459 l -1.4552081,-2e-5 v -0.79374 c 0,-0.26458 -0.2645833,-0.26459 -0.2645833,-0.26459 z m -0.9260419,1.8521 0.6614586,-2e-5 v 2.11667 l -0.6614586,2e-5 c 0,0 -0.2645834,0 -0.2645834,-0.26458 v -1.5875 c 0,0 -8e-7,-0.26459 0.2645834,-0.26459 z"
       id="path4556"
       inkscape:connector-curvature="0"
       sodipodi:nodetypes="scccscscscscccscscccscscscszcccscz" />
  </g>
</svg>
