<?xml version="1.0" encoding="UTF-8" standalone="no"?>
<!-- Created with Inkscape (http://www.inkscape.org/) -->

<svg
   xmlns:dc="http://purl.org/dc/elements/1.1/"
   xmlns:cc="http://creativecommons.org/ns#"
   xmlns:rdf="http://www.w3.org/1999/02/22-rdf-syntax-ns#"
   xmlns:svg="http://www.w3.org/2000/svg"
   xmlns="http://www.w3.org/2000/svg"
   xmlns:sodipodi="http://sodipodi.sourceforge.net/DTD/sodipodi-0.dtd"
   xmlns:inkscape="http://www.inkscape.org/namespaces/inkscape"
   width="16"
   height="16"
   viewBox="0 0 4.2333332 4.2333335"
   version="1.1"
   id="svg859"
   inkscape:version="0.92.2 5c3e80d, 2017-08-06"
   sodipodi:docname="boost.svg">
  <defs
     id="defs853" />
  <sodipodi:namedview
     id="base"
     pagecolor="#ffffff"
     bordercolor="#666666"
     borderopacity="1.0"
     inkscape:pageopacity="0.0"
     inkscape:pageshadow="2"
     inkscape:zoom="22.4"
     inkscape:cx="1.3165292"
     inkscape:cy="6.6635272"
     inkscape:document-units="mm"
     inkscape:current-layer="layer1"
     showgrid="true"
     units="px"
     inkscape:window-width="1440"
     inkscape:window-height="810"
     inkscape:window-x="0"
     inkscape:window-y="23"
     inkscape:window-maximized="0"
     inkscape:snap-bbox="true"
     inkscape:bbox-nodes="true"
     inkscape:object-nodes="false"
     inkscape:snap-others="false"
     inkscape:snap-nodes="false"
     inkscape:snap-global="false">
    <inkscape:grid
       type="xygrid"
       id="grid1404"
       empspacing="4" />
  </sodipodi:namedview>
  <metadata
     id="metadata856">
    <rdf:RDF>
      <cc:Work
         rdf:about="">
        <dc:format>image/svg+xml</dc:format>
        <dc:type
           rdf:resource="http://purl.org/dc/dcmitype/StillImage" />
        <dc:title></dc:title>
      </cc:Work>
    </rdf:RDF>
  </metadata>
  <g
     inkscape:label="Layer 1"
     inkscape:groupmode="layer"
     id="layer1"
     transform="translate(0,-292.76665)">
    <path
       style="fill:#40ff40;fill-opacity:1;stroke-width:0.02114512"
       d="m 0.54111255,296.97634 c -0.12079546,-0.0448 -0.21515759,-0.12443 -0.28161985,-0.23742 l -0.0586209,-0.0997 -0.004656,-1.35192 -0.004656,-1.35193 -0.09577981,-0.0973 C 0.04310072,293.78461 0,293.72199 0,293.69902 c 0,-0.0557 0.5252921,-0.58046 0.58105852,-0.58046 0.0226983,0 0.0862429,0.0443 0.14121151,0.0985 l 0.0999422,0.0985 0.16409536,-0.005 c 0.0902527,-0.003 0.19324901,-0.017 0.22888121,-0.0319 0.035632,-0.0148 0.164205,-0.11399 0.2857173,-0.22026 0.3188803,-0.27885 0.2841243,-0.26771 0.8356307,-0.26771 0.4382753,0 0.4702025,0.003 0.5517751,0.0463 0.1008078,0.0539 0.2129091,0.17465 0.2543846,0.27392 0.043071,0.10302 0.043071,3.4643 0,3.56739 -0.041475,0.0993 -0.1535764,0.21997 -0.2543846,0.2739 -0.08557,0.0458 -0.099327,0.0464 -1.1755561,0.0504 -0.90679498,0.004 -1.10280276,-9.5e-4 -1.171636,-0.0265 z m 2.17451885,-3.70073 c 0.03931,-0.0393 0.039647,-0.0421 0.011332,-0.095 -0.020142,-0.0376 -0.047106,-0.041 -0.3375781,-0.041 -0.2940478,0 -0.3172404,0.003 -0.3383219,0.0423 -0.016081,0.0301 -0.016081,0.0546 0,0.0846 0.021023,0.0393 0.044274,0.0423 0.326983,0.0423 0.2484882,0 0.3104487,-0.007 0.3375779,-0.0332 z"
       id="path1559"
       inkscape:connector-curvature="0"
       sodipodi:nodetypes="ccccccsscccccscccccccccsccscc" />
    <path
       style="fill:none;stroke:#353535;stroke-width:0.3175;stroke-linecap:round;stroke-linejoin:miter;stroke-opacity:1;stroke-miterlimit:4;stroke-dasharray:none"
       d="M 1.0583333,294.61873 2.38125,295.94165"
       id="path1561"
       inkscape:connector-curvature="0" />
    <path
       style="fill:none;stroke:#353535;stroke-width:0.3175;stroke-linecap:round;stroke-linejoin:miter;stroke-opacity:1;stroke-miterlimit:4;stroke-dasharray:none"
       d="M 1.0583333,295.94165 2.38125,294.61873"
       id="path1563"
       inkscape:connector-curvature="0" />
    <path
       style="fill:none;stroke:#353535;stroke-width:0.32492456;stroke-linecap:round;stroke-linejoin:miter;stroke-miterlimit:4;stroke-dasharray:none;stroke-opacity:1"
       d="M 2.1428547,293.19425 H 2.6258045"
       id="path1565"
       inkscape:connector-curvature="0" />
  </g>
</svg>
