<?xml version="1.0" encoding="UTF-8" standalone="no"?>
<!-- Created with Inkscape (http://www.inkscape.org/) -->

<svg
   xmlns:dc="http://purl.org/dc/elements/1.1/"
   xmlns:cc="http://creativecommons.org/ns#"
   xmlns:rdf="http://www.w3.org/1999/02/22-rdf-syntax-ns#"
   xmlns:svg="http://www.w3.org/2000/svg"
   xmlns="http://www.w3.org/2000/svg"
   xmlns:sodipodi="http://sodipodi.sourceforge.net/DTD/sodipodi-0.dtd"
   xmlns:inkscape="http://www.inkscape.org/namespaces/inkscape"
   width="80"
   height="16"
   viewBox="0 0 21.166666 4.2333335"
   version="1.1"
   id="svg945"
   inkscape:version="0.92.2 5c3e80d, 2017-08-06"
   sodipodi:docname="missile.svg">
  <defs
     id="defs939">
    <inkscape:perspective
       sodipodi:type="inkscape:persp3d"
       inkscape:vp_x="0 : 2.1166667 : 1"
       inkscape:vp_y="0 : 1000 : 0"
       inkscape:vp_z="21.166666 : 2.1166667 : 1"
       inkscape:persp3d-origin="10.583333 : 1.4111112 : 1"
       id="perspective2073" />
  </defs>
  <sodipodi:namedview
     id="base"
     pagecolor="#6c0000"
     bordercolor="#666666"
     borderopacity="1.0"
     inkscape:pageopacity="0.46666667"
     inkscape:pageshadow="2"
     inkscape:zoom="11.2"
     inkscape:cx="45.81422"
     inkscape:cy="12.425012"
     inkscape:document-units="mm"
     inkscape:current-layer="layer1"
     showgrid="true"
     inkscape:pagecheckerboard="true"
     units="px"
     inkscape:window-width="1440"
     inkscape:window-height="810"
     inkscape:window-x="0"
     inkscape:window-y="23"
     inkscape:window-maximized="0"
     inkscape:snap-bbox="false"
     inkscape:bbox-nodes="true"
     inkscape:snap-global="false">
    <inkscape:grid
       type="xygrid"
       id="grid2041"
       empspacing="4" />
  </sodipodi:namedview>
  <metadata
     id="metadata942">
    <rdf:RDF>
      <cc:Work
         rdf:about="">
        <dc:format>image/svg+xml</dc:format>
        <dc:type
           rdf:resource="http://purl.org/dc/dcmitype/StillImage" />
        <dc:title></dc:title>
      </cc:Work>
    </rdf:RDF>
  </metadata>
  <g
     inkscape:label="Layer 1"
     inkscape:groupmode="layer"
     id="layer1"
     transform="translate(0,-292.76665)">
    <path
       style="fill:#b3b3b3;stroke:none;stroke-width:0.99999994px;stroke-linecap:butt;stroke-linejoin:miter;stroke-opacity:1"
       d="M 20 12 L 20 4 L 8 4 L 8 12 L 20 12 z "
       id="path2105"
       transform="matrix(0.26458333,0,0,0.26458333,0,292.76665)" />
    <path
       style="fill:#ff2a2a;stroke:none;stroke-width:0.99999994000000003px;stroke-linecap:butt;stroke-linejoin:miter;stroke-opacity:1"
       d="M 22 12 L 22 4 L 20 4 L 20 12 L 22 12 z "
       id="path2103"
       transform="matrix(0.26458333,0,0,0.26458333,0,292.76665)" />
    <path
       style="fill:#b3b3b3;stroke:none;stroke-width:0.99999994px;stroke-linecap:butt;stroke-linejoin:miter;stroke-opacity:1"
       d="M 24 12 L 24 4 L 22 4 L 22 12 L 24 12 z "
       id="path2110"
       transform="matrix(0.26458333,0,0,0.26458333,0,292.76665)" />
    <path
       style="fill:#ff2a2a;stroke:none;stroke-width:0.99999994000000003px;stroke-linecap:butt;stroke-linejoin:miter;stroke-opacity:1"
       d="M 26 12 L 26 4 L 24 4 L 24 12 L 26 12 z "
       id="path2108"
       transform="matrix(0.26458333,0,0,0.26458333,0,292.76665)" />
    <path
       style="fill:#b3b3b3;stroke:none;stroke-width:0.99999994px;stroke-linecap:butt;stroke-linejoin:miter;stroke-opacity:1"
       d="M 28 12 L 28 4 L 26 4 L 26 12 L 28 12 z "
       id="path2115"
       transform="matrix(0.26458333,0,0,0.26458333,0,292.76665)" />
    <path
       style="fill:#ff2a2a;stroke:none;stroke-width:0.99999994000000003px;stroke-linecap:butt;stroke-linejoin:miter;stroke-opacity:1"
       d="M 30 12 L 30 4 L 28 4 L 28 12 L 30 12 z "
       id="path2113"
       transform="matrix(0.26458333,0,0,0.26458333,0,292.76665)" />
    <path
       style="fill:#ff2a2a;stroke:none;stroke-width:0.99999994000000003px;stroke-linecap:butt;stroke-linejoin:miter;stroke-opacity:1"
       d="M 58 12 L 42 12 L 48 15 L 58 15 L 58 12 z "
       id="path2122"
       transform="matrix(0.26458333,0,0,0.26458333,0,292.76665)" />
    <path
       style="fill:#b3b3b3;stroke:none;stroke-width:0.99999994px;stroke-linecap:butt;stroke-linejoin:miter;stroke-opacity:1"
       d="M 42 4 L 30 4 L 30 12 L 40 12 L 42 12 L 58 12 L 58 4 L 42 4 z "
       id="path2125"
       transform="matrix(0.26458333,0,0,0.26458333,0,292.76665)" />
    <path
       style="fill:#ff2a2a;stroke:none;stroke-width:0.99999994000000003px;stroke-linecap:butt;stroke-linejoin:miter;stroke-opacity:1"
       d="M 42 4 L 58 4 L 58 1 L 48 1 L 42 4 z "
       id="path2071"
       transform="matrix(0.26458333,0,0,0.26458333,0,292.76665)" />
    <path
       style="fill:#ff2a2a;stroke:none;stroke-width:0.99999994000000003px;stroke-linecap:butt;stroke-linejoin:miter;stroke-opacity:1"
       d="M 0 8 C 0 11.999987 8 12 8 12 L 8 4 C 8 4 0 3.9999748 0 8 z "
       id="path2043"
       transform="matrix(0.26458333,0,0,0.26458333,0,292.76665)" />
    <path
       style="fill:#ff2a2a;stroke:none;stroke-width:0.26458332px;stroke-linecap:butt;stroke-linejoin:miter;stroke-opacity:1"
       d="M 11.1125,294.88332 12.7,294.47108 h 2.645833 v 0.81612 H 12.7 Z"
       id="path2127"
       inkscape:connector-curvature="0"
       sodipodi:nodetypes="cccccc" />
    <g
       transform="matrix(1.4357761,0,0,0.79999886,15.088547,60.670333)"
       id="layer1-4"
       inkscape:label="Layer 1">
      <g
         transform="matrix(-0.37885793,0,0,-0.44945412,4.095621,424.89014)"
         id="g2591">
        <path
           style="fill:#ff0000;fill-opacity:1;stroke:none;stroke-width:0.05191807000000000px;stroke-linecap:butt;stroke-linejoin:miter;stroke-opacity:1"
           d="m 8.4666667,296.90775 c -1.9622597,0 -6.8679021,-1.96226 -8.83016003,-2.94339 1.96225793,-0.98113 6.86790033,-2.94339 8.83016003,-2.94339 2.1938713,0 2.1938693,5.88678 0,5.88678 z"
           id="path4547"
           inkscape:connector-curvature="0"
           sodipodi:nodetypes="scss" />
        <path
           style="fill:#ff6600;fill-opacity:1;stroke:none;stroke-width:0.03461206000000000px;stroke-linecap:butt;stroke-linejoin:miter;stroke-opacity:1"
           d="m 8.4666647,295.92662 c -1.3081744,0 -4.5786007,-1.30817 -5.8867732,-1.96226 1.3081725,-0.65409 4.5785988,-1.96226 5.8867732,-1.96226 1.4625825,0 1.4625825,3.92452 0,3.92452 z"
           id="path4547-3"
           inkscape:connector-curvature="0"
           sodipodi:nodetypes="scss" />
        <path
           style="fill:#ffff00;fill-opacity:1;stroke:none;stroke-width:0.01737310000000000px;stroke-linecap:butt;stroke-linejoin:miter;stroke-opacity:1"
           d="m 8.4666647,294.94549 c -0.6566225,0 -2.2981707,-0.65662 -2.9547932,-0.98493 0.6566225,-0.32831 2.2981707,-0.98493 2.9547932,-0.98493 0.7341277,0 0.7341277,1.96986 0,1.96986 z"
           id="path4547-3-3"
           inkscape:connector-curvature="0"
           sodipodi:nodetypes="scss" />
      </g>
    </g>
  </g>
</svg>
