<?xml version="1.0" encoding="UTF-8" standalone="no"?>
<!-- Created with Inkscape (http://www.inkscape.org/) -->

<svg
   xmlns:dc="http://purl.org/dc/elements/1.1/"
   xmlns:cc="http://creativecommons.org/ns#"
   xmlns:rdf="http://www.w3.org/1999/02/22-rdf-syntax-ns#"
   xmlns:svg="http://www.w3.org/2000/svg"
   xmlns="http://www.w3.org/2000/svg"
   xmlns:sodipodi="http://sodipodi.sourceforge.net/DTD/sodipodi-0.dtd"
   xmlns:inkscape="http://www.inkscape.org/namespaces/inkscape"
   width="32"
   height="32"
   viewBox="0 0 8.4666665 8.4666669"
   version="1.1"
   id="svg911"
   inkscape:version="0.92.2 5c3e80d, 2017-08-06"
   sodipodi:docname="body.svg">
  <defs
     id="defs905">
    <filter
       id="filter2083"
       inkscape:label="Blur"
       style="color-interpolation-filters:sRGB">
      <feGaussianBlur
         id="feGaussianBlur2081"
         result="blur"
         stdDeviation="7 7" />
    </filter>
  </defs>
  <sodipodi:namedview
     id="base"
     pagecolor="#ffffff"
     bordercolor="#666666"
     borderopacity="1.0"
     inkscape:pageopacity="0.0"
     inkscape:pageshadow="2"
     inkscape:zoom="22.627417"
     inkscape:cx="34.39618"
     inkscape:cy="22.927117"
     inkscape:document-units="mm"
     inkscape:current-layer="layer1"
     showgrid="true"
     units="px"
     inkscape:snap-bbox="true"
     inkscape:bbox-nodes="true"
     inkscape:snap-smooth-nodes="true"
     inkscape:object-nodes="true"
     inkscape:window-width="1417"
     inkscape:window-height="1030"
     inkscape:window-x="0"
     inkscape:window-y="23"
     inkscape:window-maximized="0">
    <inkscape:grid
       type="xygrid"
       id="grid1456"
       empspacing="4"
       spacingx="0.13229167"
       spacingy="0.13229167" />
  </sodipodi:namedview>
  <metadata
     id="metadata908">
    <rdf:RDF>
      <cc:Work
         rdf:about="">
        <dc:format>image/svg+xml</dc:format>
        <dc:type
           rdf:resource="http://purl.org/dc/dcmitype/StillImage" />
        <dc:title />
      </cc:Work>
    </rdf:RDF>
  </metadata>
  <g
     inkscape:label="Layer 1"
     inkscape:groupmode="layer"
     id="layer1"
     transform="translate(0,-288.53332)">
    <path
       style="fill:#aa0000;fill-opacity:1;fill-rule:nonzero;stroke:none;stroke-width:0.21166667;stroke-linejoin:round;stroke-miterlimit:4;stroke-dasharray:none;stroke-dashoffset:0;stroke-opacity:1;paint-order:markers fill stroke"
       d="m 4.8121092,291.04687 h 2.8608072 v 0.26459 h -2.960026 z"
       id="rect2524"
       inkscape:connector-curvature="0"
       sodipodi:nodetypes="ccccc" />
    <path
       style="fill:#aa0000;fill-opacity:1;fill-rule:nonzero;stroke:none;stroke-width:0.21166667;stroke-linejoin:round;stroke-miterlimit:4;stroke-dasharray:none;stroke-dashoffset:0;stroke-opacity:1;paint-order:markers fill stroke"
       d="m 4.8121097,294.48644 h 2.8608072 v -0.26459 h -2.960026 z"
       id="rect2524-5"
       inkscape:connector-curvature="0"
       sodipodi:nodetypes="ccccc" />
    <g
       id="g1412"
       transform="rotate(-90,4.2333335,292.76666)">
      <path
         sodipodi:nodetypes="ccccc"
         inkscape:connector-curvature="0"
         id="path1462"
         d="M 0.26458361,296.20624 H 2.6458335 v -2.91042 l -2.38124989,0.79375 v 2.11667"
         style="fill:#aa0000;fill-opacity:1;stroke:none;stroke-width:0.24631354px;stroke-linecap:butt;stroke-linejoin:miter;stroke-opacity:1" />
      <path
         sodipodi:nodetypes="ccccc"
         inkscape:connector-curvature="0"
         id="path1462-7"
         d="M 8.2020834,296.20624 H 5.8208335 v -2.91042 l 2.38125,0.79375 -1e-7,2.11667"
         style="fill:#aa0000;fill-opacity:1;stroke:none;stroke-width:0.24631354px;stroke-linecap:butt;stroke-linejoin:miter;stroke-opacity:1" />
      <path
         sodipodi:nodetypes="csccscc"
         inkscape:connector-curvature="0"
         id="path1479"
         d="m -2.0000001e-8,296.7354 c 0,0 0,0.26459 0.264583330000001,0.26459 0.26458333,0 0.26458333,-0.26459 0.26458333,-0.26459 l 3e-7,-3.17499 c 0,0 0,-0.26459 -0.26458333,-0.26459 C 2.8e-7,293.29582 2.8e-7,293.56041 2.8e-7,293.56041 Z"
         style="fill:#b3b3b3;fill-opacity:1;stroke:none;stroke-width:0.26458332px;stroke-linecap:butt;stroke-linejoin:miter;stroke-opacity:1" />
      <rect
         y="293.03125"
         x="0.13229169"
         height="0.39687499"
         width="0.26458332"
         id="rect1481"
         style="fill:#b3b3b3;fill-opacity:1;fill-rule:nonzero;stroke:none;stroke-width:0.21166667;stroke-linejoin:round;stroke-miterlimit:4;stroke-dasharray:none;stroke-dashoffset:0;stroke-opacity:1;paint-order:markers fill stroke" />
      <path
         sodipodi:nodetypes="ccsccsc"
         inkscape:connector-curvature="0"
         id="path1483"
         d="m -5e-8,292.56821 v 0.39688 c 0,0 0,0.19844 0.26458333,0.19844 0.2645834,0 0.2645834,-0.19844 0.2645834,-0.19844 v -0.39688 c 0,0 0,-0.19843 -0.2645834,-0.19843 C -5e-8,292.36978 -5e-8,292.56821 -5e-8,292.56821 Z"
         style="fill:#aa0000;fill-opacity:1;stroke:none;stroke-width:0.32404599px;stroke-linecap:butt;stroke-linejoin:miter;stroke-opacity:1" />
      <path
         sodipodi:nodetypes="csccscc"
         inkscape:connector-curvature="0"
         id="path1479-3"
         d="m 7.9375002,296.7354 c 0,0 0,0.26459 0.2645833,0.26459 0.2645833,0 0.2645833,-0.26459 0.2645833,-0.26459 l 3e-7,-3.17499 c 0,0 0,-0.26459 -0.2645833,-0.26459 -0.2645833,0 -0.2645833,0.26459 -0.2645833,0.26459 z"
         style="fill:#b3b3b3;fill-opacity:1;stroke:none;stroke-width:0.26458332px;stroke-linecap:butt;stroke-linejoin:miter;stroke-opacity:1" />
      <rect
         y="293.03125"
         x="8.0697918"
         height="0.39687499"
         width="0.26458332"
         id="rect1481-3"
         style="fill:#b3b3b3;fill-opacity:1;fill-rule:nonzero;stroke:none;stroke-width:0.21166667;stroke-linejoin:round;stroke-miterlimit:4;stroke-dasharray:none;stroke-dashoffset:0;stroke-opacity:1;paint-order:markers fill stroke" />
      <path
         sodipodi:nodetypes="ccsccsc"
         inkscape:connector-curvature="0"
         id="path1483-9"
         d="m 7.9375003,292.56821 v 0.39688 c 0,0 0,0.19844 0.2645833,0.19844 0.2645833,0 0.2645833,-0.19844 0.2645833,-0.19844 v -0.39688 c 0,0 0,-0.19843 -0.2645833,-0.19843 -0.2645833,0 -0.2645833,0.19843 -0.2645833,0.19843 z"
         style="fill:#aa0000;fill-opacity:1;stroke:none;stroke-width:0.32404599px;stroke-linecap:butt;stroke-linejoin:miter;stroke-opacity:1" />
      <path
         sodipodi:nodetypes="cccscc"
         inkscape:connector-curvature="0"
         id="path1531"
         d="m 3.175,293.6927 h 2.1166669 l 1e-7,-3.3073 c 0,0 0,-0.52917 -1.0583336,-0.52917 -1.0583333,0 -1.0583333,0.52917 -1.0583333,0.52917 l -1e-7,3.3073"
         style="fill:#b3b3b3;fill-opacity:1;stroke:none;stroke-width:0.26458332px;stroke-linecap:butt;stroke-linejoin:miter;stroke-opacity:1" />
      <path
         sodipodi:nodetypes="csccscc"
         inkscape:connector-curvature="0"
         id="path1517"
         d="m 2.6458335,296.20624 c 0,0 0,0.52917 1.5875,0.52917 1.5875002,0 1.5875002,-0.52917 1.5875002,-0.52917 v -2.91042 c 0,0 -10e-8,-1.05833 -1.5875003,-1.05833 -1.5875,0 -1.5874999,1.05833 -1.5874999,1.05833 z"
         style="fill:#666666;fill-opacity:1;stroke:none;stroke-width:0.26458332px;stroke-linecap:butt;stroke-linejoin:miter;stroke-opacity:1" />
      <path
         sodipodi:nodetypes="ccsc"
         inkscape:connector-curvature="0"
         id="path1533"
         d="M 3.7041667,289.98852 H 4.7625 c 0,0 0,-0.66145 -0.5291666,-0.66145 -0.5291667,0 -0.5291667,0.66145 -0.5291667,0.66145 z"
         style="fill:#b3b3b3;fill-opacity:1;stroke:none;stroke-width:0.26458332px;stroke-linecap:butt;stroke-linejoin:miter;stroke-opacity:1" />
      <path
         sodipodi:nodetypes="cscscscsc"
         inkscape:connector-curvature="0"
         id="path1558"
         d="m 3.8364583,293.42812 c 0,0 0,-0.1323 0.1322917,-0.1323 h 0.5291666 c 0,0 0.1322917,0 0.1322917,0.1323 v 2.64583 c 0,0 0,0.13229 -0.1322917,0.13229 H 3.96875 c 0,0 -0.1322917,0 -0.1322917,-0.13229 z"
         style="fill:#aa0000;fill-opacity:1;stroke:none;stroke-width:0.26458332px;stroke-linecap:butt;stroke-linejoin:miter;stroke-opacity:1" />
      <path
         sodipodi:nodetypes="csccscc"
         inkscape:connector-curvature="0"
         id="path1479-3-2"
         d="m 3.9687502,296.7354 c 0,0 0,0.26459 0.2645833,0.26459 0.2645833,0 0.2645833,-0.26459 0.2645833,-0.26459 l 3e-7,-3.17499 c 0,0 0,-0.26459 -0.2645833,-0.26459 -0.2645833,0 -0.2645833,0.26459 -0.2645833,0.26459 z"
         style="fill:#b3b3b3;fill-opacity:1;stroke:none;stroke-width:0.26458332px;stroke-linecap:butt;stroke-linejoin:miter;stroke-opacity:1" />
      <rect
         y="293.03125"
         x="4.1010418"
         height="0.39687499"
         width="0.26458332"
         id="rect1481-3-5"
         style="fill:#b3b3b3;fill-opacity:1;fill-rule:nonzero;stroke:none;stroke-width:0.21166667;stroke-linejoin:round;stroke-miterlimit:4;stroke-dasharray:none;stroke-dashoffset:0;stroke-opacity:1;paint-order:markers fill stroke" />
      <path
         sodipodi:nodetypes="ccsccsc"
         inkscape:connector-curvature="0"
         id="path1483-9-9"
         d="m 3.9687501,292.56821 v 0.39688 c 0,0 0,0.19844 0.2645833,0.19844 0.2645833,0 0.2645833,-0.19844 0.2645833,-0.19844 v -0.39688 c 0,0 0,-0.19843 -0.2645833,-0.19843 -0.2645833,0 -0.2645833,0.19843 -0.2645833,0.19843 z"
         style="fill:#800000;fill-opacity:1;stroke:none;stroke-width:0.32404599px;stroke-linecap:butt;stroke-linejoin:miter;stroke-opacity:1" />
      <path
         sodipodi:nodetypes="csccscc"
         inkscape:connector-curvature="0"
         id="path1566"
         d="m 3.4395833,292.10519 c 0,0 1e-7,-0.13229 0.7937501,-0.13229 0.79375,0 0.7937499,0.13229 0.7937499,0.13229 v -1.5875 c 0,0 1e-7,-0.39687 -0.7937499,-0.39687 -0.79375,0 -0.7937501,0.39687 -0.7937501,0.39687 z"
         style="fill:#666666;fill-opacity:1;stroke:none;stroke-width:0.26458332px;stroke-linecap:butt;stroke-linejoin:miter;stroke-opacity:1" />
      <rect
         y="288.93021"
         x="4.1010418"
         height="0.52915519"
         width="0.26458299"
         id="rect1572"
         style="fill:#b3b3b3;fill-opacity:1;fill-rule:nonzero;stroke:none;stroke-width:0.42332855;stroke-linejoin:round;stroke-miterlimit:4;stroke-dasharray:none;stroke-dashoffset:0;stroke-opacity:1;paint-order:markers fill stroke" />
      <ellipse
         ry="0.26458675"
         rx="0.2645832"
         cy="288.79791"
         cx="4.2333331"
         id="path1570"
         style="fill:#aa0000;fill-opacity:1;fill-rule:nonzero;stroke:none;stroke-width:0.28222397;stroke-linejoin:round;stroke-miterlimit:4;stroke-dasharray:none;stroke-dashoffset:0;stroke-opacity:1;paint-order:markers fill stroke" />
    </g>
  </g>
</svg>
