<?xml version="1.0" encoding="UTF-8" standalone="no"?>
<!-- Created with Inkscape (http://www.inkscape.org/) -->

<svg
   xmlns:dc="http://purl.org/dc/elements/1.1/"
   xmlns:cc="http://creativecommons.org/ns#"
   xmlns:rdf="http://www.w3.org/1999/02/22-rdf-syntax-ns#"
   xmlns:svg="http://www.w3.org/2000/svg"
   xmlns="http://www.w3.org/2000/svg"
   xmlns:sodipodi="http://sodipodi.sourceforge.net/DTD/sodipodi-0.dtd"
   xmlns:inkscape="http://www.inkscape.org/namespaces/inkscape"
   width="32.623646"
   height="32.623634"
   viewBox="0 0 8.6316728 8.6316702"
   version="1.1"
   id="svg911"
   inkscape:version="0.92.2 5c3e80d, 2017-08-06"
   sodipodi:docname="outline.svg">
  <defs
     id="defs905">
    <filter
       id="filter2083"
       inkscape:label="Blur"
       style="color-interpolation-filters:sRGB">
      <feGaussianBlur
         id="feGaussianBlur2081"
         result="blur"
         stdDeviation="7 7" />
    </filter>
  </defs>
  <sodipodi:namedview
     id="base"
     pagecolor="#ffffff"
     bordercolor="#666666"
     borderopacity="1.0"
     inkscape:pageopacity="0.0"
     inkscape:pageshadow="2"
     inkscape:zoom="15.839192"
     inkscape:cx="24.35433"
     inkscape:cy="7.0040775"
     inkscape:document-units="mm"
     inkscape:current-layer="layer1"
     showgrid="true"
     units="px"
     inkscape:snap-bbox="true"
     inkscape:bbox-nodes="true"
     inkscape:snap-smooth-nodes="true"
     inkscape:object-nodes="true"
     inkscape:window-width="1417"
     inkscape:window-height="1030"
     inkscape:window-x="0"
     inkscape:window-y="23"
     inkscape:window-maximized="0"
     inkscape:pagecheckerboard="true">
    <inkscape:grid
       type="xygrid"
       id="grid1456"
       empspacing="4"
       spacingx="0.13229167"
       spacingy="0.13229167"
       originx="0.08250282"
       originy="0.082503339" />
  </sodipodi:namedview>
  <metadata
     id="metadata908">
    <rdf:RDF>
      <cc:Work
         rdf:about="">
        <dc:format>image/svg+xml</dc:format>
        <dc:type
           rdf:resource="http://purl.org/dc/dcmitype/StillImage" />
        <dc:title></dc:title>
      </cc:Work>
    </rdf:RDF>
  </metadata>
  <g
     inkscape:label="Layer 1"
     inkscape:groupmode="layer"
     id="layer1"
     transform="translate(0.08250282,-288.45082)">
    <path
       style="fill:none;fill-opacity:1;stroke:#ffffff;stroke-width:0.62362206;stroke-linecap:butt;stroke-linejoin:round;stroke-miterlimit:4;stroke-dasharray:none;stroke-opacity:1"
       d="M 1,14.5 C 2.519685e-8,14.5 0,15.25 0,15.25 v 1.5 c 0,0 0.00805881,0.463306 0.5,0.660156 v 0.710938 C 0.00832558,18.383647 0,19 0,19 v 12 c 0,0 2.5196846e-8,1 1,1 1,0 1,-1 1,-1 v -2 h 8 V 18 H 9.5 L 2,20.5 V 19 C 2,19 1.99167,18.383647 1.5,18.121094 V 17.410156 C 1.9919413,17.213306 2,16.75 2,16.75 v -1.5 c 0,0 3e-7,-0.75 -1,-0.75 z"
       transform="matrix(0.26458333,0,0,0.26458333,0,288.53332)"
       id="path1479"
       inkscape:connector-curvature="0" />
    <path
       style="fill:none;fill-opacity:1;stroke:#ffffff;stroke-width:0.62362206;stroke-linecap:butt;stroke-linejoin:round;stroke-miterlimit:4;stroke-dasharray:none;stroke-opacity:1"
       d="M 17.000001,31 C 22.000001,31 22,29 22,29 V 18 c 0,0 -0.0032,-1.920119 -2,-3.099609 V 7 C 20,7 19.966247,5.7581266 17.978516,5.2363281 17.936438,4.7182281 17.716382,3.3766945 16.5,3.0664062 V 1.8652344 C 16.809153,1.6867427 16.999714,1.3569836 17,1 16.999993,0.44771297 16.55228,-2.761896e-7 16,0 c -0.55228,-2.761896e-7 -0.999993,0.44771297 -1,1 9.83e-4,0.3562855 0.19145,0.6851392 0.5,0.8632812 v 1.203125 C 14.283618,3.3766945 14.063562,4.7182281 14.021484,5.2363281 12.033753,5.7581266 12,7 12,7 v 7.900391 C 10.003177,16.079881 10,18 10,18 v 11 c 0,0 0,2 5.000001,2"
       transform="matrix(0.26458333,0,0,0.26458333,0,288.53332)"
       id="path1531"
       inkscape:connector-curvature="0"
       sodipodi:nodetypes="ccccccccccccccccccc" />
    <path
       style="fill:none;fill-opacity:1;stroke:#ffffff;stroke-width:0.62362206;stroke-linecap:butt;stroke-linejoin:round;stroke-miterlimit:4;stroke-dasharray:none;stroke-opacity:1"
       d="m 16,14.5 c -1,0 -1,0.75 -1,0.75 v 1.5 c 0,0 0.0081,0.463306 0.5,0.660156 V 18 H 15 c -0.5,0 -0.5,0.5 -0.5,0.5 v 10 c 0,0.499994 0.5,0.5 0.5,0.5 v 2 c 0,0 0,1 1,1 1,0 1,-1 1,-1 v -2 c 0.5,0 0.5,-0.5 0.5,-0.5 v -10 C 17.5,17.999969 17,18 17,18 H 16.5 V 17.410156 C 16.991941,17.213306 17,16.75 17,16.75 v -1.5 c 0,0 0,-0.75 -1,-0.75 z"
       transform="matrix(0.26458333,0,0,0.26458333,0,288.53332)"
       id="path1558"
       inkscape:connector-curvature="0" />
    <path
       style="fill:none;fill-opacity:1;stroke:#ffffff;stroke-width:0.16500001;stroke-linecap:butt;stroke-linejoin:round;stroke-miterlimit:4;stroke-dasharray:none;stroke-opacity:1"
       d="m 3.4395833,292.10519 c 0,0 1e-7,-0.13229 0.7937501,-0.13229 0.79375,0 0.7937499,0.13229 0.7937499,0.13229 v -1.5875 c 0,0 1e-7,-0.39687 -0.7937499,-0.39687 -0.79375,0 -0.7937501,0.39687 -0.7937501,0.39687 z"
       id="path1566"
       inkscape:connector-curvature="0"
       sodipodi:nodetypes="csccscc" />
    <path
       inkscape:connector-curvature="0"
       style="fill:none;fill-opacity:1;stroke:#ffffff;stroke-width:0.16500001;stroke-linecap:butt;stroke-linejoin:round;stroke-miterlimit:4;stroke-dasharray:none;stroke-opacity:1"
       d="m 8.2020835,292.36978 c 0.2645833,0 0.2645834,0.19844 0.2645834,0.19844 v 0.39687 c 0,0 -0.00213,0.12259 -0.1322917,0.17467 v 0.1881 c 0.1300888,0.0695 0.1322917,0.23254 0.1322917,0.23254 v 3.175 c 0,0 -10e-8,0.26459 -0.2645834,0.26459 -0.2645833,0 -0.2645833,-0.26459 -0.2645833,-0.26459 v -0.52916 H 5.8208335 v -2.91042 h 0.1322917 l 1.984375,0.66146 v -0.39688 c 0,0 0.0022,-0.16307 0.1322917,-0.23254 v -0.1881 c -0.1301595,-0.0521 -0.1322917,-0.17467 -0.1322917,-0.17467 v -0.39687 c 0,0 -10e-8,-0.19844 0.2645833,-0.19844 z"
       id="path1479-8" />
  </g>
</svg>
