<?xml version="1.0" encoding="UTF-8" standalone="no"?>
<!-- Created with Inkscape (http://www.inkscape.org/) -->

<svg
   xmlns:dc="http://purl.org/dc/elements/1.1/"
   xmlns:cc="http://creativecommons.org/ns#"
   xmlns:rdf="http://www.w3.org/1999/02/22-rdf-syntax-ns#"
   xmlns:svg="http://www.w3.org/2000/svg"
   xmlns="http://www.w3.org/2000/svg"
   xmlns:sodipodi="http://sodipodi.sourceforge.net/DTD/sodipodi-0.dtd"
   xmlns:inkscape="http://www.inkscape.org/namespaces/inkscape"
   width="32"
   height="32"
   viewBox="0 0 8.4666665 8.4666669"
   version="1.1"
   id="svg8"
   inkscape:version="0.92.2 5c3e80d, 2017-08-06"
   sodipodi:docname="ships.svg">
  <defs
     id="defs2" />
  <sodipodi:namedview
     id="base"
     pagecolor="#ffffff"
     bordercolor="#666666"
     borderopacity="1.0"
     inkscape:pageopacity="0.0"
     inkscape:pageshadow="2"
     inkscape:zoom="4"
     inkscape:cx="-27.49727"
     inkscape:cy="8.6964265"
     inkscape:document-units="mm"
     inkscape:current-layer="layer1"
     showgrid="true"
     units="px"
     inkscape:snap-bbox="true"
     inkscape:bbox-nodes="true"
     inkscape:window-width="1440"
     inkscape:window-height="810"
     inkscape:window-x="0"
     inkscape:window-y="23"
     inkscape:window-maximized="0"
     inkscape:object-nodes="false"
     inkscape:snap-global="false">
    <inkscape:grid
       type="xygrid"
       id="grid815"
       empspacing="4"
       spacingx="0.26458333"
       spacingy="0.26458333" />
  </sodipodi:namedview>
  <metadata
     id="metadata5">
    <rdf:RDF>
      <cc:Work
         rdf:about="">
        <dc:format>image/svg+xml</dc:format>
        <dc:type
           rdf:resource="http://purl.org/dc/dcmitype/StillImage" />
        <dc:title></dc:title>
      </cc:Work>
    </rdf:RDF>
  </metadata>
  <g
     inkscape:label="Layer 1"
     inkscape:groupmode="layer"
     id="layer1"
     transform="translate(0,-288.53332)">
    <ellipse
       style="fill:none;fill-opacity:1;fill-rule:nonzero;stroke:#225500;stroke-width:0.4434858;stroke-linejoin:round;stroke-miterlimit:4;stroke-dasharray:none;stroke-dashoffset:0;stroke-opacity:1;paint-order:markers fill stroke"
       id="path817"
       cx="4.2333336"
       cy="292.76666"
       rx="4.01159"
       ry="4.0115857" />
    <path
       style="fill:#225500;stroke-width:0.05055603;fill-opacity:1"
       d="m 3.8779406,295.45438 c -0.1547832,-0.0568 -0.2025018,-0.19784 -0.2406539,-0.71144 l -0.032729,-0.44062 -0.2002393,-0.0318 c -0.3909182,-0.062 -0.7650704,-0.43424 -0.832157,-0.82794 l -0.032166,-0.1888 -0.4405093,-0.0308 c -0.8496532,-0.0595 -0.8968463,-0.19426 -0.3526641,-1.00722 0.4866251,-0.72698 0.5314789,-0.75712 1.1292699,-0.75876 l 0.4730588,-0.002 0.2340406,-0.2139 c 0.5444987,-0.49764 1.2648576,-0.84042 2.0872755,-0.99322 0.4322829,-0.0803 0.897803,-0.0811 0.97797,-0.002 0.071121,0.0705 0.016935,0.86246 -0.086325,1.26161 -0.1439317,0.55638 -0.4959867,1.24041 -0.8591136,1.66922 l -0.3051583,0.36036 0.025771,0.36959 c 0.038866,0.55747 -0.066406,0.72501 -0.7437027,1.18362 -0.5910267,0.40019 -0.639988,0.42235 -0.8019645,0.36294 z M 5.331564,292.3184 c 0.3764845,-0.19303 0.3757623,-0.75674 -0.00129,-0.98464 -0.2190597,-0.13243 -0.3922928,-0.12868 -0.6048099,0.0132 -0.6141321,0.40976 -0.052908,1.30938 0.6060711,0.97152 z m -2.8626969,2.98706 c -0.018606,-0.0298 -0.048516,-0.10674 -0.066462,-0.17084 l -0.032625,-0.11656 -0.3044442,0.0937 c -0.2563515,0.079 -0.3153266,0.0829 -0.3733375,0.0254 -0.05801,-0.0575 -0.05556,-0.11095 0.015536,-0.3382 0.046434,-0.14842 0.095876,-0.29665 0.1098676,-0.32938 0.015963,-0.0374 -0.03701,-0.0655 -0.1422373,-0.0755 -0.2649938,-0.0254 -0.2460171,-0.16188 0.06602,-0.47515 0.3188557,-0.32014 0.4272427,-0.33922 0.5307952,-0.0935 0.1087075,0.25797 0.4107049,0.56752 0.691148,0.70843 0.1344134,0.0675 0.244388,0.15772 0.244388,0.20045 0,0.0427 -0.117551,0.20093 -0.2612247,0.35154 -0.2513263,0.26349 -0.4057795,0.33453 -0.4774259,0.21958 z"
       id="path911"
       inkscape:connector-curvature="0" />
  </g>
</svg>
